<mxfile host="app.diagrams.net" modified="2023-05-16T08:11:50.267Z" agent="Mozilla/5.0 (Windows NT 10.0; Win64; x64) AppleWebKit/537.36 (KHTML, like Gecko) Chrome/113.0.0.0 Safari/537.36" version="21.3.2" etag="0oOfSZNJII_vyt4tQLtz" type="github">
  <diagram name="第 1 页" id="nTrDGBKdv7b9xv4iA6Em">
    <mxGraphModel>
      <root>
        <mxCell id="0" />
        <mxCell id="1" parent="0" />
      </root>
    </mxGraphModel>
  </diagram>
</mxfile>
